<svg xmlns="http://www.w3.org/2000/svg" version="1.1" xmlns:xlink="http://www.w3.org/1999/xlink" xmlns:svgjs="http://svgjs.dev/svgjs" width="1500" height="1500" viewBox="0 0 1500 1500"><rect width="1500" height="1500" fill="#ffffff"></rect><g transform="matrix(0.6666666666666666,0,0,0.6666666666666666,249.39393939393938,673.1347998440013)"><svg viewBox="0 0 396 61" data-background-color="#fafafa" preserveAspectRatio="xMidYMid meet" height="231" width="1500" xmlns="http://www.w3.org/2000/svg" xmlns:xlink="http://www.w3.org/1999/xlink"><g id="tight-bounds" transform="matrix(1,0,0,1,0.2400000000000091,-0.053394743403146094)"><svg viewBox="0 0 395.52 61.10677734034344" height="61.10677734034344" width="395.52"><g><svg viewBox="0 0 487.15400579877274 75.26398503944677" height="61.10677734034344" width="395.52"><g transform="matrix(1,0,0,1,91.63400579877276,23.763559676633875)"><svg viewBox="0 0 395.52 27.73686568617902" height="27.73686568617902" width="395.52"><g id="textblocktransform"><svg viewBox="0 0 395.52 27.73686568617902" height="27.73686568617902" width="395.52" id="textblock"><g><svg viewBox="0 0 395.52 27.73686568617902" height="27.73686568617902" width="395.52"><g transform="matrix(1,0,0,1,0,0)"><svg width="395.52" viewBox="0.4 -35.25 509.9500000000001 36" height="27.73686568617902" data-palette-color="#030a1e"><g class="wordmark-text-0" data-fill-palette-color="primary" id="text-0"><path d="M0.4-34.55L21.95-34.55 21.25-29.55 14.15-29.55 14.15 0 7.8 0 7.8-29.55 0.4-29.55 0.4-34.55ZM46.7 0L40.3 0 40.3-15.5 31.35-15.5 31.35 0 25 0 25-34.55 31.35-34.55 31.35-20.6 40.3-20.6 40.3-34.55 46.7-34.55 46.7 0ZM52.65-34.55L69.8-34.55 69.15-29.8 59-29.8 59-19.9 67.84-19.9 67.84-15.2 59-15.2 59-4.8 69.8-4.8 69.8 0 52.65 0 52.65-34.55Z" fill="#000000" data-fill-palette-color="primary"></path><path d="M82.65-34.55L89-34.55 89-5.25 100.15-5.25 99.45 0 82.65 0 82.65-34.55ZM103.5-34.55L120.65-34.55 120-29.8 109.85-29.8 109.85-19.9 118.7-19.9 118.7-15.2 109.85-15.2 109.85-4.8 120.65-4.8 120.65 0 103.5 0 103.5-34.55ZM137.39-35.25Q140.24-35.25 142.49-34.23 144.74-33.2 146.74-31.25L146.74-31.25 143.54-27.95Q141.99-29.3 140.64-29.88 139.29-30.45 137.59-30.45L137.59-30.45Q134.29-30.45 132.42-27.5 130.54-24.55 130.54-17.3L130.54-17.3Q130.54-12.2 131.22-9.33 131.89-6.45 133.22-5.3 134.54-4.15 136.69-4.15L136.69-4.15Q138.94-4.15 140.79-5.4L140.79-5.4 140.79-14.75 136.89-14.75 136.24-19.5 146.84-19.5 146.84-2.6Q144.69-1.05 142.07-0.18 139.44 0.7 136.74 0.7L136.74 0.7Q130.29 0.7 127.09-3.68 123.89-8.05 123.89-17.3L123.89-17.3Q123.89-23.3 125.67-27.33 127.44-31.35 130.49-33.3 133.54-35.25 137.39-35.25L137.39-35.25ZM152.04-34.55L169.19-34.55 168.54-29.8 158.39-29.8 158.39-19.9 167.24-19.9 167.24-15.2 158.39-15.2 158.39-4.8 169.19-4.8 169.19 0 152.04 0 152.04-34.55ZM195.29-34.55L195.29 0 187.19 0 178.44-28.3Q178.84-24.7 179.06-21.68 179.29-18.65 179.29-14.5L179.29-14.5 179.29 0 173.69 0 173.69-34.55 181.74-34.55 190.49-6.25Q190.19-8.05 189.91-11.35 189.64-14.65 189.64-18.05L189.64-18.05 189.64-34.55 195.29-34.55ZM208.99-34.55Q213.34-34.55 216.51-33.23 219.69-31.9 221.66-28.13 223.64-24.35 223.64-17.45L223.64-17.45Q223.64-7.7 219.76-3.85 215.89 0 209.64 0L209.64 0 201.29 0 201.29-34.55 208.99-34.55ZM209.94-29.8L207.64-29.8 207.64-4.75 209.99-4.75Q212.24-4.75 213.76-5.8 215.29-6.85 216.16-9.65 217.04-12.45 217.04-17.45L217.04-17.45Q217.04-22.55 216.11-25.25 215.19-27.95 213.66-28.88 212.14-29.8 209.94-29.8L209.94-29.8ZM237.13-35.25Q240.13-35.25 242.43-34.2 244.73-33.15 246.68-31.05L246.68-31.05 243.73-27.65Q242.18-29.05 240.71-29.75 239.23-30.45 237.58-30.45L237.58-30.45Q235.68-30.45 234.58-29.28 233.48-28.1 233.48-26.2L233.48-26.2Q233.48-24.3 234.63-23.1 235.78-21.9 239.13-20.6L239.13-20.6Q243.43-18.85 245.46-16.5 247.48-14.15 247.48-9.85L247.48-9.85Q247.48-6.9 246.13-4.48 244.78-2.05 242.26-0.65 239.73 0.75 236.38 0.75L236.38 0.75Q232.93 0.75 230.38-0.48 227.83-1.7 225.73-3.95L225.73-3.95 228.93-7.45Q230.73-5.85 232.38-5 234.03-4.15 235.98-4.15L235.98-4.15Q238.28-4.15 239.56-5.58 240.83-7 240.83-9.45L240.83-9.45Q240.83-11.6 239.71-12.98 238.58-14.35 235.53-15.5L235.53-15.5Q230.93-17.35 228.91-19.75 226.88-22.15 226.88-25.75L226.88-25.75Q226.88-28.5 228.21-30.65 229.53-32.8 231.88-34.02 234.23-35.25 237.13-35.25L237.13-35.25Z" fill="#000000" data-fill-palette-color="secondary"></path><path d="M260.33-34.55L266.68-34.55 266.68-5.25 277.83-5.25 277.13 0 260.33 0 260.33-34.55ZM303.13 0L296.68 0 294.98-8.1 286.08-8.1 284.43 0 278.08 0 286.78-34.55 294.48-34.55 303.13 0ZM290.53-29.7L287.08-12.9 294.03-12.9 290.53-29.7ZM331.52-34.55L337.42-34.55 332.57 0 324.22 0 320.52-27.8 316.67 0 308.47 0 303.72-34.55 309.87-34.55 313.07-5.1 317.22-34.55 323.97-34.55 328.02-5.1 331.52-34.55Z" fill="#000000" data-fill-palette-color="accent"></path><path d="M361.77-35.25Q364.42-35.25 366.44-34.38 368.47-33.5 370.37-31.7L370.37-31.7 367.32-28.05Q366.02-29.25 364.79-29.83 363.57-30.4 362.12-30.4L362.12-30.4Q359.12-30.4 357.42-27.4 355.72-24.4 355.72-17.35L355.72-17.35Q355.72-10.4 357.42-7.38 359.12-4.35 362.22-4.35L362.22-4.35Q363.77-4.35 364.92-4.98 366.07-5.6 367.62-6.9L367.62-6.9 370.67-3.4Q369.07-1.6 366.82-0.43 364.57 0.75 361.77 0.75L361.77 0.75Q355.92 0.75 352.47-3.8 349.02-8.35 349.02-17.35L349.02-17.35Q349.02-23.3 350.67-27.3 352.32-31.3 355.19-33.27 358.07-35.25 361.77-35.25L361.77-35.25ZM385.52-35.25Q391.62-35.25 394.92-30.8 398.22-26.35 398.22-17.3L398.22-17.3Q398.22-8.35 394.92-3.8 391.62 0.75 385.52 0.75L385.52 0.75Q379.47 0.75 376.14-3.75 372.82-8.25 372.82-17.25L372.82-17.25Q372.82-26.15 376.14-30.7 379.47-35.25 385.52-35.25L385.52-35.25ZM385.52-30.45Q382.47-30.45 380.99-27.4 379.52-24.35 379.52-17.25L379.52-17.25Q379.52-10.1 381.02-7.13 382.52-4.15 385.52-4.15L385.52-4.15Q388.62-4.15 390.09-7.1 391.57-10.05 391.57-17.3L391.57-17.3Q391.57-24.4 390.07-27.43 388.57-30.45 385.52-30.45L385.52-30.45ZM402.96-34.55L409.31-34.55 409.31-5.25 420.46-5.25 419.76 0 402.96 0 402.96-34.55ZM423.81-34.55L430.16-34.55 430.16-5.25 441.31-5.25 440.61 0 423.81 0 423.81-34.55ZM444.66-34.55L461.81-34.55 461.16-29.8 451.01-29.8 451.01-19.9 459.86-19.9 459.86-15.2 451.01-15.2 451.01-4.8 461.81-4.8 461.81 0 444.66 0 444.66-34.55ZM478.56-35.25Q481.41-35.25 483.66-34.23 485.91-33.2 487.91-31.25L487.91-31.25 484.71-27.95Q483.16-29.3 481.81-29.88 480.46-30.45 478.76-30.45L478.76-30.45Q475.46-30.45 473.58-27.5 471.71-24.55 471.71-17.3L471.71-17.3Q471.71-12.2 472.38-9.33 473.06-6.45 474.38-5.3 475.71-4.15 477.86-4.15L477.86-4.15Q480.11-4.15 481.96-5.4L481.96-5.4 481.96-14.75 478.06-14.75 477.41-19.5 488.01-19.5 488.01-2.6Q485.86-1.05 483.23-0.18 480.61 0.7 477.91 0.7L477.91 0.7Q471.46 0.7 468.26-3.68 465.06-8.05 465.06-17.3L465.06-17.3Q465.06-23.3 466.83-27.33 468.61-31.35 471.66-33.3 474.71-35.25 478.56-35.25L478.56-35.25ZM493.2-34.55L510.35-34.55 509.7-29.8 499.55-29.8 499.55-19.9 508.4-19.9 508.4-15.2 499.55-15.2 499.55-4.8 510.35-4.8 510.35 0 493.2 0 493.2-34.55Z" fill="#000000" data-fill-palette-color="primary"></path></g></svg></g></svg></g></svg></g></svg></g><g><svg viewBox="0 0 75.26398503944677 75.26398503944677" height="75.26398503944677" width="75.26398503944677"><g><svg viewBox="0 0 75.26398503944677 75.26398503944677" height="75.26398503944677" width="75.26398503944677"><g transform="matrix(1,0,0,1,19.892101119551494,21.68087047298167)"><svg viewBox="0 0 35.47978280034378 31.902244093483425" height="31.902244093483425" width="35.47978280034378"><g><svg xmlns="http://www.w3.org/2000/svg" xmlns:xlink="http://www.w3.org/1999/xlink" version="1.0" x="0" y="0" viewBox="13.8416319 18.8500004 72.0667161000014 64.80000120000001" enable-background="new 0 0 100 100" xml:space="preserve" height="31.902244093483425" width="35.47978280034378" class="icon-cg-0" data-fill-palette-color="accent" id="cg-0"><g fill="#e77917" data-fill-palette-color="accent"><path d="M85.903 50.529c-0.003-0.139-0.031-0.275-0.082-0.407-0.013-0.033-0.031-0.061-0.047-0.092-0.026-0.052-0.045-0.108-0.079-0.156L75.188 34.709v-9.859c0-0.663-0.537-1.2-1.2-1.2H55.883c-0.558-2.735-2.981-4.8-5.879-4.8-2.897 0-5.321 2.065-5.879 4.8H25.762c-0.663 0-1.2 0.537-1.2 1.2v9.859L14.055 49.874c-0.034 0.049-0.054 0.104-0.079 0.156-0.016 0.031-0.034 0.059-0.047 0.092-0.051 0.131-0.079 0.267-0.082 0.407 0 0.01-0.006 0.018-0.005 0.028 0 6.573 5.347 11.92 11.92 11.92 6.573 0 11.92-5.347 11.92-11.92 0-0.01-0.006-0.018-0.005-0.028-0.003-0.139-0.031-0.275-0.083-0.407-0.013-0.033-0.031-0.061-0.046-0.092-0.026-0.052-0.045-0.108-0.08-0.156L26.962 34.709v-8.659h17.163c0.478 2.347 2.331 4.2 4.679 4.679v42.268H34.53c-0.663 0-1.2 0.537-1.2 1.2v8.253c0 0.663 0.537 1.2 1.2 1.2h30.947c0.663 0 1.2-0.537 1.2-1.2v-8.253c0-0.663-0.537-1.2-1.2-1.2H51.204V30.729c2.347-0.478 4.2-2.331 4.679-4.679h16.905v8.659L62.282 49.874c-0.034 0.049-0.054 0.104-0.08 0.156-0.016 0.031-0.034 0.059-0.046 0.092-0.051 0.131-0.079 0.267-0.083 0.407 0 0.01-0.006 0.018-0.005 0.028 0 6.573 5.347 11.92 11.92 11.92 6.573 0 11.92-5.347 11.92-11.92C85.908 50.547 85.903 50.539 85.903 50.529zM25.762 60.077c-4.842 0-8.843-3.637-9.436-8.32h18.872C34.605 56.441 30.604 60.077 25.762 60.077zM17.333 49.357l8.429-12.167 8.429 12.167H17.333zM64.277 81.25H35.73v-5.853h28.547V81.25zM51.204 28.229c-0.377 0.135-0.777 0.221-1.2 0.221-0.423 0-0.823-0.087-1.2-0.221-1.017-0.363-1.816-1.162-2.179-2.179-0.134-0.377-0.221-0.777-0.221-1.2s0.087-0.823 0.221-1.2C47.122 22.256 48.442 21.25 50.004 21.25c1.562 0 2.882 1.006 3.379 2.4 0.134 0.377 0.221 0.777 0.221 1.2s-0.087 0.823-0.221 1.2C53.02 27.067 52.221 27.866 51.204 28.229zM73.988 37.19l8.429 12.167H65.559L73.988 37.19zM73.988 60.077c-4.842 0-8.843-3.637-9.436-8.32h18.872C82.831 56.441 78.83 60.077 73.988 60.077z" fill="#000000" data-fill-palette-color="accent"></path></g></svg></g></svg></g><g id="text-0"><path d="M0.779 28.157l1.029-3.24 0.724 0.346-0.338 1.064 4.438 1.41-0.305 0.958-4.438-1.41-0.353 1.112z" fill="#000000" data-fill-palette-color="accent"></path><path d="M8.679 22.798l-0.411 0.918-2.231-0.998-0.575 1.285 2.231 0.998-0.41 0.918-4.976-2.226 0.411-0.918 2.01 0.899 0.575-1.285-2.01-0.899 0.41-0.918z" fill="#000000" data-fill-palette-color="accent"></path><path d="M4.616 18.984l1.411-2.308 0.591 0.479-0.834 1.364 1.33 0.813 0.724-1.184 0.635 0.389-0.724 1.184 1.399 0.855 0.886-1.45 0.644 0.393-1.411 2.308z" fill="#000000" data-fill-palette-color="accent"></path><path d="M8.313 13.698l0.662-0.757 3.482 3.046 1.152-1.318 0.548 0.627-1.741 1.991z" fill="#000000" data-fill-palette-color="accent"></path><path d="M11.106 10.691l1.989-1.835 0.437 0.623-1.175 1.084 1.057 1.146 1.02-0.941 0.505 0.547-1.02 0.941 1.112 1.205 1.249-1.153 0.511 0.554-1.988 1.835z" fill="#000000" data-fill-palette-color="accent"></path><path d="M15.865 6.681c0.245-0.175 0.497-0.285 0.754-0.329 0.253-0.049 0.526-0.054 0.817-0.015v0l-0.113 0.723c-0.213-0.021-0.394-0.015-0.544 0.018-0.15 0.033-0.298 0.102-0.445 0.207v0c-0.284 0.203-0.415 0.486-0.394 0.85 0.021 0.364 0.254 0.857 0.699 1.479v0c0.312 0.436 0.583 0.758 0.813 0.964 0.235 0.203 0.446 0.312 0.63 0.329 0.179 0.02 0.362-0.036 0.547-0.169v0c0.191-0.136 0.326-0.316 0.407-0.538v0l-0.854-1.195-0.499 0.357-0.521-0.555 1.358-0.971 1.55 2.168c-0.088 0.269-0.218 0.519-0.391 0.75-0.169 0.236-0.368 0.436-0.597 0.6v0c-0.551 0.394-1.097 0.5-1.639 0.319-0.543-0.172-1.098-0.653-1.663-1.445v0c-0.367-0.513-0.596-0.995-0.689-1.448-0.093-0.453-0.069-0.857 0.072-1.214 0.141-0.356 0.375-0.651 0.702-0.885z" fill="#000000" data-fill-palette-color="accent"></path><path d="M18.6 5.052l2.375-1.294 0.273 0.71-1.404 0.765 0.746 1.369 1.219-0.664 0.356 0.654-1.219 0.664 0.785 1.439 1.492-0.813 0.361 0.662-2.375 1.295z" fill="#000000" data-fill-palette-color="accent"></path><path d="M25.594 1.878l2.01 5.067-1.187 0.471-2.937-3.639c0.185 0.338 0.344 0.65 0.479 0.935 0.144 0.289 0.296 0.636 0.457 1.042v0l0.841 2.122-0.822 0.326-2.01-5.067 1.178-0.467 2.927 3.642c-0.094-0.165-0.221-0.403-0.381-0.714-0.153-0.314-0.296-0.636-0.427-0.967v0l-0.96-2.421z" fill="#000000" data-fill-palette-color="accent"></path><path d="M28.581 1.086c0.443-0.107 0.844-0.132 1.203-0.074 0.352 0.059 0.676 0.257 0.971 0.593 0.295 0.336 0.528 0.855 0.699 1.559v0c0.242 0.997 0.215 1.742-0.08 2.234-0.303 0.487-0.773 0.808-1.412 0.962v0l-1.28 0.311-1.284-5.298zM28.905 1.784l-0.352 0.085 0.931 3.842 0.352-0.086c0.235-0.057 0.417-0.16 0.546-0.308 0.125-0.141 0.198-0.365 0.219-0.674 0.022-0.309-0.03-0.721-0.154-1.235v0c-0.125-0.515-0.27-0.9-0.435-1.157-0.158-0.252-0.326-0.407-0.507-0.468-0.178-0.053-0.379-0.053-0.6 0.001z" fill="#000000" data-fill-palette-color="accent"></path><path d="M33.83 0.074c0.313-0.032 0.596-0.004 0.848 0.084 0.251 0.082 0.491 0.222 0.721 0.421v0l-0.404 0.588c-0.182-0.129-0.353-0.223-0.515-0.281-0.161-0.058-0.328-0.077-0.501-0.059v0c-0.2 0.021-0.351 0.097-0.452 0.228-0.1 0.138-0.14 0.304-0.12 0.498v0c0.021 0.2 0.098 0.357 0.231 0.472 0.133 0.114 0.383 0.22 0.75 0.317v0c0.466 0.141 0.818 0.32 1.057 0.537 0.232 0.225 0.372 0.565 0.419 1.019v0c0.032 0.307-0.009 0.594-0.124 0.862-0.114 0.268-0.293 0.489-0.538 0.662-0.252 0.174-0.554 0.28-0.907 0.316v0c-0.36 0.037-0.68 0.006-0.96-0.093-0.281-0.106-0.543-0.264-0.788-0.474v0l0.454-0.603c0.204 0.147 0.398 0.259 0.58 0.334 0.182 0.069 0.374 0.093 0.574 0.072v0c0.24-0.025 0.419-0.117 0.537-0.278 0.118-0.167 0.163-0.377 0.137-0.631v0c-0.023-0.227-0.099-0.404-0.227-0.532-0.135-0.134-0.369-0.245-0.701-0.332v0c-0.5-0.144-0.87-0.331-1.11-0.563-0.232-0.225-0.368-0.528-0.407-0.908v0c-0.03-0.287 0.011-0.547 0.121-0.781 0.117-0.241 0.292-0.438 0.526-0.59 0.233-0.159 0.5-0.254 0.799-0.285z" fill="#000000" data-fill-palette-color="accent"></path><path d="M39.153 0l1.004 0.064-0.294 4.617 1.747 0.111-0.163 0.816-2.64-0.168z" fill="#000000" data-fill-palette-color="accent"></path><path d="M45.676 6.405l-0.998-0.191-0.028-1.305-1.373-0.262-0.496 1.206-0.988-0.188 2.374-5.097 1.185 0.226zM44.607 1.43l-1.031 2.506 1.067 0.204z" fill="#000000" data-fill-palette-color="accent"></path><path d="M51.847 2.758l0.874 0.303-2.508 4.9-1.245-0.431 0.886-4.335-2.007 3.946-1.226-0.425 1.083-5.394 0.912 0.316-1.037 4.558 2.139-4.176 0.998 0.346-0.914 4.601z" fill="#000000" data-fill-palette-color="accent"></path><path d="M57.679 5.553c0.242 0.144 0.431 0.311 0.568 0.501 0.131 0.187 0.234 0.412 0.311 0.677v0l-0.707 0.246c-0.054-0.172-0.12-0.317-0.199-0.434-0.081-0.126-0.185-0.227-0.311-0.302v0c-0.271-0.161-0.566-0.15-0.887 0.034-0.317 0.178-0.663 0.584-1.04 1.219v0c-0.374 0.628-0.563 1.124-0.569 1.487-0.009 0.369 0.125 0.636 0.402 0.8v0c0.144 0.086 0.285 0.131 0.423 0.135 0.138 0.004 0.31-0.01 0.517-0.043v0l0.132 0.722c-0.24 0.076-0.495 0.104-0.763 0.084-0.267-0.01-0.527-0.091-0.781-0.242v0c-0.524-0.312-0.819-0.768-0.883-1.368-0.074-0.598 0.131-1.303 0.614-2.115v0c0.319-0.536 0.661-0.941 1.027-1.215 0.366-0.274 0.731-0.423 1.097-0.448 0.366-0.024 0.715 0.063 1.049 0.262z" fill="#000000" data-fill-palette-color="accent"></path><path d="M61.47 8.238c0.506 0.398 0.751 0.889 0.735 1.473-0.016 0.584-0.318 1.251-0.906 2v0c-0.58 0.738-1.154 1.187-1.722 1.345-0.572 0.164-1.112 0.048-1.618-0.35v0c-0.496-0.389-0.733-0.879-0.713-1.468 0.011-0.589 0.308-1.255 0.892-1.998v0c0.58-0.738 1.157-1.185 1.73-1.34 0.572-0.164 1.106-0.052 1.602 0.338zM60.998 8.839c-0.248-0.195-0.532-0.213-0.852-0.055-0.321 0.148-0.714 0.518-1.178 1.108v0c-0.464 0.591-0.728 1.057-0.792 1.399-0.073 0.343 0.014 0.612 0.262 0.806v0c0.258 0.203 0.543 0.231 0.855 0.084 0.316-0.153 0.708-0.527 1.176-1.123v0c0.46-0.585 0.728-1.052 0.806-1.4 0.068-0.347-0.024-0.62-0.277-0.819z" fill="#000000" data-fill-palette-color="accent"></path><path d="M64.16 10.694l0.706 0.716-3.293 3.249 1.229 1.246-0.665 0.5-1.858-1.883z" fill="#000000" data-fill-palette-color="accent"></path><path d="M66.955 13.703l0.625 0.788-3.623 2.876 1.088 1.371-0.715 0.426-1.645-2.072z" fill="#000000" data-fill-palette-color="accent"></path><path d="M69.409 16.993l1.447 2.286-0.692 0.319-0.855-1.352-1.317 0.834 0.742 1.172-0.629 0.398-0.742-1.173-1.385 0.877 0.908 1.436-0.637 0.404-1.447-2.287z" fill="#000000" data-fill-palette-color="accent"></path><path d="M72.496 22.395c0.128 0.273 0.191 0.54 0.188 0.801 0.003 0.258-0.041 0.527-0.132 0.806v0l-0.691-0.241c0.059-0.206 0.086-0.385 0.08-0.538-0.005-0.153-0.047-0.312-0.123-0.476v0c-0.148-0.315-0.404-0.496-0.766-0.54-0.362-0.045-0.889 0.096-1.58 0.422v0c-0.485 0.228-0.85 0.437-1.095 0.626-0.242 0.195-0.387 0.382-0.436 0.561-0.052 0.173-0.03 0.362 0.067 0.568v0c0.1 0.212 0.252 0.378 0.456 0.497v0l1.329-0.625-0.261-0.555 0.639-0.412 0.711 1.51-2.411 1.135c-0.249-0.135-0.471-0.308-0.667-0.52-0.202-0.209-0.363-0.441-0.483-0.695v0c-0.288-0.613-0.295-1.169-0.019-1.67 0.267-0.504 0.84-0.962 1.72-1.376v0c0.57-0.268 1.087-0.407 1.549-0.417 0.462-0.01 0.856 0.086 1.181 0.289 0.325 0.203 0.573 0.486 0.744 0.85z" fill="#000000" data-fill-palette-color="accent"></path><path d="M73.606 25.379l0.846 2.57-0.748 0.14-0.5-1.519-1.48 0.487 0.433 1.319-0.707 0.232-0.433-1.318-1.558 0.512 0.532 1.615-0.717 0.236-0.845-2.57z" fill="#000000" data-fill-palette-color="accent"></path><path d="M7.195 46.348l1.03 3.24-0.791 0.135-0.338-1.064-4.438 1.41-0.305-0.959 4.438-1.41-0.353-1.112z" fill="#000000" data-fill-palette-color="accent"></path><path d="M4.873 55.448l-0.411-0.918 2.231-0.998-0.575-1.286-2.231 0.998-0.411-0.918 4.976-2.226 0.411 0.918-2.011 0.9 0.575 1.285 2.011-0.9 0.411 0.919z" fill="#000000" data-fill-palette-color="accent"></path><path d="M10.36 54.047l1.411 2.308-0.696 0.308-0.834-1.364-1.33 0.813 0.724 1.184-0.635 0.388-0.724-1.184-1.399 0.855 0.887 1.45-0.643 0.394-1.412-2.309z" fill="#000000" data-fill-palette-color="accent"></path><path d="M13.381 58.413l0.662 0.757-3.483 3.045 1.152 1.317-0.694 0.46-1.741-1.991z" fill="#000000" data-fill-palette-color="accent"></path><path d="M15.672 60.904l1.988 1.835-0.585 0.486-1.175-1.085-1.058 1.146 1.02 0.941-0.504 0.547-1.02-0.941-1.112 1.205 1.249 1.153-0.511 0.554-1.989-1.835z" fill="#000000" data-fill-palette-color="accent"></path><path d="M19.909 64.205c0.245 0.175 0.43 0.378 0.555 0.607 0.129 0.224 0.222 0.48 0.279 0.768v0l-0.721 0.127c-0.049-0.208-0.113-0.378-0.193-0.508-0.079-0.131-0.193-0.249-0.34-0.355v0c-0.284-0.203-0.594-0.235-0.932-0.097-0.338 0.138-0.729 0.518-1.173 1.139v0c-0.312 0.436-0.528 0.797-0.649 1.081-0.115 0.288-0.151 0.523-0.107 0.703 0.039 0.176 0.151 0.331 0.337 0.463v0c0.191 0.136 0.404 0.207 0.64 0.211v0l0.854-1.195-0.499-0.356 0.357-0.673 1.358 0.971-1.55 2.169c-0.283 0.004-0.562-0.039-0.836-0.128-0.278-0.084-0.532-0.207-0.761-0.371v0c-0.551-0.394-0.828-0.876-0.832-1.448-0.013-0.57 0.263-1.25 0.829-2.041v0c0.367-0.513 0.749-0.886 1.147-1.121 0.398-0.234 0.789-0.343 1.172-0.324 0.383 0.018 0.738 0.144 1.065 0.378z" fill="#000000" data-fill-palette-color="accent"></path><path d="M21.822 65.579l2.375 1.295-0.449 0.614-1.404-0.765-0.746 1.368 1.218 0.665-0.356 0.653-1.218-0.664-0.785 1.439 1.492 0.814-0.361 0.662-2.375-1.295z" fill="#000000" data-fill-palette-color="accent"></path><path d="M28.076 68.407l-2.01 5.067-1.187-0.471 0.357-4.663c-0.097 0.373-0.195 0.709-0.293 1.01-0.094 0.309-0.221 0.666-0.381 1.071v0l-0.842 2.122-0.823-0.326 2.01-5.067 1.178 0.467-0.366 4.659c0.044-0.184 0.115-0.445 0.213-0.781 0.104-0.334 0.221-0.666 0.352-0.997v0l0.96-2.421z" fill="#000000" data-fill-palette-color="accent"></path><path d="M30.166 68.913c0.443 0.107 0.811 0.269 1.104 0.485 0.286 0.214 0.484 0.538 0.592 0.971 0.109 0.433 0.078 1.002-0.092 1.706v0c-0.242 0.997-0.606 1.647-1.093 1.95-0.492 0.295-1.058 0.365-1.697 0.21v0l-1.28-0.31 1.283-5.298zM30.135 69.682l-0.352-0.085-0.931 3.841 0.352 0.085c0.235 0.057 0.444 0.049 0.627-0.024 0.175-0.068 0.343-0.234 0.504-0.499 0.161-0.265 0.303-0.654 0.428-1.169v0c0.125-0.515 0.172-0.924 0.142-1.228-0.025-0.296-0.104-0.511-0.236-0.647-0.134-0.129-0.312-0.221-0.534-0.274z" fill="#000000" data-fill-palette-color="accent"></path><path d="M34.545 69.552c0.313 0.032 0.584 0.118 0.813 0.256 0.229 0.132 0.436 0.318 0.62 0.56v0l-0.516 0.492c-0.152-0.164-0.3-0.291-0.446-0.38-0.146-0.089-0.305-0.143-0.479-0.16v0c-0.2-0.021-0.363 0.023-0.489 0.131-0.126 0.115-0.2 0.269-0.22 0.463v0c-0.021 0.2 0.022 0.37 0.13 0.509 0.107 0.139 0.33 0.294 0.67 0.463v0c0.428 0.233 0.736 0.48 0.924 0.743 0.181 0.268 0.248 0.629 0.201 1.082v0c-0.032 0.307-0.131 0.58-0.297 0.819-0.166 0.239-0.387 0.418-0.662 0.538-0.282 0.119-0.6 0.16-0.953 0.124v0c-0.36-0.037-0.667-0.133-0.921-0.287-0.253-0.161-0.477-0.37-0.673-0.626v0l0.567-0.497c0.17 0.186 0.336 0.335 0.5 0.446 0.164 0.105 0.347 0.167 0.547 0.188v0c0.24 0.025 0.434-0.029 0.583-0.163 0.149-0.14 0.237-0.336 0.263-0.589v0c0.023-0.227-0.014-0.416-0.113-0.568-0.105-0.159-0.311-0.315-0.619-0.468v0c-0.46-0.243-0.784-0.502-0.972-0.778-0.181-0.268-0.252-0.592-0.212-0.973v0c0.03-0.287 0.123-0.533 0.278-0.739 0.163-0.212 0.375-0.369 0.635-0.471 0.261-0.108 0.541-0.146 0.841-0.115z" fill="#000000" data-fill-palette-color="accent"></path><path d="M38.726 69.824l1.003-0.064 0.294 4.617 1.746-0.111-0.058 0.83-2.639 0.168z" fill="#000000" data-fill-palette-color="accent"></path><path d="M46.456 74.234l-0.998 0.19-0.506-1.204-1.373 0.262-0.018 1.304-0.988 0.188 0.334-5.613 1.185-0.225zM43.632 70.001l-0.036 2.71 1.067-0.203z" fill="#000000" data-fill-palette-color="accent"></path><path d="M49.642 67.424l0.874-0.303 1.063 5.4-1.245 0.432-1.987-3.952 0.866 4.341-1.226 0.425-2.489-4.907 0.913-0.316 2.006 4.222-0.904-4.604 0.998-0.346 2.13 4.179z" fill="#000000" data-fill-palette-color="accent"></path><path d="M54.125 65.013c0.242-0.144 0.479-0.23 0.712-0.259 0.227-0.026 0.474-0.009 0.743 0.049v0l-0.122 0.74c-0.177-0.035-0.336-0.046-0.476-0.033-0.15 0.011-0.288 0.054-0.414 0.129v0c-0.271 0.161-0.402 0.426-0.393 0.795 0.005 0.363 0.197 0.862 0.573 1.496v0c0.374 0.628 0.719 1.031 1.036 1.21 0.32 0.184 0.618 0.194 0.895 0.03v0c0.144-0.086 0.251-0.188 0.32-0.308 0.069-0.119 0.139-0.278 0.209-0.475v0l0.698 0.229c-0.048 0.247-0.145 0.484-0.291 0.711-0.137 0.229-0.332 0.42-0.585 0.57v0c-0.524 0.312-1.066 0.353-1.624 0.123-0.56-0.221-1.082-0.737-1.565-1.55v0c-0.319-0.536-0.511-1.03-0.577-1.482-0.066-0.452-0.023-0.845 0.13-1.178 0.153-0.333 0.397-0.599 0.731-0.797z" fill="#000000" data-fill-palette-color="accent"></path><path d="M57.174 62.837c0.506-0.398 1.041-0.52 1.605-0.366 0.564 0.154 1.14 0.605 1.729 1.353v0c0.58 0.738 0.88 1.402 0.9 1.992 0.024 0.595-0.217 1.091-0.724 1.489v0c-0.496 0.389-1.028 0.505-1.595 0.346-0.569-0.15-1.146-0.596-1.731-1.34v0c-0.58-0.738-0.877-1.404-0.891-1.998-0.024-0.595 0.212-1.087 0.707-1.476zM57.646 63.438c-0.248 0.195-0.333 0.466-0.255 0.814 0.068 0.347 0.334 0.816 0.798 1.407v0c0.464 0.591 0.854 0.957 1.171 1.1 0.316 0.153 0.598 0.131 0.846-0.063v0c0.258-0.203 0.353-0.473 0.284-0.811-0.073-0.343-0.344-0.812-0.813-1.408v0c-0.46-0.585-0.85-0.957-1.169-1.115-0.321-0.148-0.608-0.123-0.862 0.076z" fill="#000000" data-fill-palette-color="accent"></path><path d="M59.367 61.121l0.706-0.716 3.294 3.249 1.229-1.246 0.509 0.658-1.857 1.883z" fill="#000000" data-fill-palette-color="accent"></path><path d="M61.682 58.654l0.625-0.788 3.624 2.876 1.088-1.37 0.577 0.599-1.645 2.072z" fill="#000000" data-fill-palette-color="accent"></path><path d="M63.72 55.95l1.446-2.286 0.584 0.488-0.855 1.352 1.317 0.833 0.742-1.173 0.629 0.398-0.742 1.173 1.386 0.877 0.908-1.437 0.638 0.403-1.447 2.287z" fill="#000000" data-fill-palette-color="accent"></path><path d="M66.204 51.187c0.128-0.273 0.294-0.491 0.498-0.655 0.197-0.167 0.432-0.304 0.705-0.413v0l0.255 0.687c-0.196 0.086-0.351 0.179-0.466 0.281-0.115 0.102-0.21 0.234-0.287 0.399v0c-0.148 0.315-0.125 0.627 0.072 0.934 0.196 0.307 0.64 0.624 1.331 0.949v0c0.485 0.228 0.879 0.376 1.181 0.444 0.304 0.062 0.541 0.055 0.71-0.021 0.166-0.07 0.298-0.208 0.395-0.415v0c0.1-0.212 0.131-0.435 0.092-0.668v0l-1.328-0.625-0.262 0.555-0.725-0.23 0.711-1.511 2.411 1.135c0.055 0.278 0.063 0.559 0.025 0.845-0.032 0.289-0.108 0.56-0.228 0.816v0c-0.288 0.613-0.713 0.972-1.274 1.078-0.558 0.115-1.277-0.034-2.157-0.448v0c-0.57-0.268-1.007-0.577-1.309-0.927-0.302-0.35-0.479-0.714-0.53-1.094-0.051-0.38 0.009-0.752 0.18-1.116z" fill="#000000" data-fill-palette-color="accent"></path><path d="M67.211 49.059l0.846-2.569 0.685 0.331-0.5 1.519 1.481 0.487 0.434-1.318 0.707 0.232-0.434 1.319 1.557 0.512 0.531-1.614 0.717 0.236-0.846 2.569z" fill="#000000" data-fill-palette-color="accent"></path><path d="M0.69 38.271c0-1.172 0.95-2.122 2.122-2.121 1.172 0 2.122 0.95 2.121 2.121 0 1.172-0.95 2.122-2.121 2.122-1.172 0-2.122-0.95-2.122-2.122z" fill="#000000" data-fill-palette-color="accent"></path><path d="M70.331 38.271c0-1.172 0.95-2.122 2.121-2.121 1.172 0 2.122 0.95 2.122 2.121 0 1.172-0.95 2.122-2.122 2.122-1.172 0-2.122-0.95-2.121-2.122z" fill="#000000" data-fill-palette-color="accent"></path></g><g id="text-1"></g></svg></g></svg></g></svg></g><defs></defs></svg><rect width="395.52" height="61.10677734034344" fill="none" stroke="none" visibility="hidden"></rect></g></svg></g></svg>